# xmcd CD database file
#
# Track frame offsets:
#	150
#	44444
#	68333
#	86274
#	126033
#	153403
#	193755
#	222957
#
# Disc length: 3230 seconds
#
# Revision: 0
# Processed by: cddbd v1.5.2PL0 Copyright (c) Steve Scherf et al.
# Submitted via: CDex 1.51
#
DISCID=640c9c08
DTITLE=Deva Premal - dakshina
DYEAR=2005
DGENRE=New Age
TTITLE0=Om  Hraum Mitraya
TTITLE1=Om Namah Shivaja
TTITLE2=Guru Rinpoche Mantra
TTITLE3=Aad Guray
TTITLE4=Hopamge le Krishna
TTITLE5=Om Purnam I
TTITLE6=Om Purnam II
TTITLE7=Brahma Nandam
EXTD=YEAR: 2005
EXTT0=
EXTT1=
EXTT2=
EXTT3=
EXTT4=
EXTT5=
EXTT6=
EXTT7=
PLAYORDER=
